<?xml version="1.0" encoding="utf-8"?>
<!-- Generator: Adobe Illustrator 23.0.6, SVG Export Plug-In . SVG Version: 6.00 Build 0)  -->
<svg version="1.1" id="Layer_1" xmlns="http://www.w3.org/2000/svg" xmlns:xlink="http://www.w3.org/1999/xlink" x="0px" y="0px"
	 viewBox="0 0 100 10" style="enable-background:new 0 0 100 10;" xml:space="preserve">
<style type="text/css">
	.st0{fill:#FFFFFF;}
	.st1{fill:#0ABC5E;}
</style>
<g>
	<path class="st0" d="M9.98,4.55c-0.04-0.43-0.2-0.75-0.45-0.98S8.92,3.23,8.47,3.23c-0.57,0-1.01,0.16-1.32,0.48S6.7,4.5,6.7,5.1
		c0,0.6,0.15,1.06,0.46,1.38s0.74,0.48,1.32,0.48c0.41,0,0.75-0.09,1-0.28c0.25-0.19,0.42-0.47,0.5-0.84h3.09
		c-0.14,0.96-0.6,1.68-1.38,2.17C10.91,8.5,9.84,8.74,8.47,8.74c-1.54,0-2.7-0.31-3.48-0.92C4.2,7.21,3.81,6.3,3.81,5.1
		c0-1.2,0.39-2.11,1.17-2.73c0.78-0.61,1.94-0.92,3.48-0.92c1.43,0,2.55,0.27,3.33,0.8s1.2,1.3,1.25,2.29H9.98z"/>
	<path class="st0" d="M14.03,8.56V1.58h2.44v6.98H14.03z"/>
	<path class="st0" d="M22.69,7.83c-0.3,0.32-0.66,0.54-1.08,0.69C21.19,8.66,20.65,8.74,20,8.74c-0.88,0-1.53-0.15-1.97-0.44
		s-0.66-0.73-0.66-1.32c0-0.19,0.02-0.37,0.07-0.54c0.05-0.16,0.12-0.3,0.21-0.42c0.18-0.23,0.43-0.4,0.74-0.51
		c0.31-0.11,0.89-0.19,1.74-0.25c0.28-0.02,0.65-0.04,1.09-0.05c0.9-0.04,1.36-0.16,1.36-0.38c0-0.15-0.1-0.26-0.29-0.35
		c-0.19-0.09-0.45-0.13-0.78-0.13c-0.42,0-0.73,0.04-0.91,0.12c-0.18,0.08-0.29,0.22-0.32,0.42h-2.48c0.05-0.65,0.35-1.12,0.91-1.4
		c0.56-0.28,1.48-0.42,2.77-0.42c0.7,0,1.29,0.05,1.77,0.15s0.84,0.24,1.09,0.44c0.27,0.21,0.46,0.46,0.57,0.76
		c0.11,0.29,0.17,0.72,0.17,1.27v2.07c0,0.2,0.02,0.35,0.05,0.46c0.04,0.11,0.1,0.19,0.19,0.25v0.12h-2.49
		c-0.04-0.11-0.08-0.22-0.11-0.34S22.7,7.96,22.69,7.83z M22.68,6.06c-0.25,0.12-0.68,0.21-1.28,0.25c-0.17,0.01-0.31,0.02-0.4,0.03
		c-0.35,0.03-0.59,0.08-0.72,0.15c-0.13,0.07-0.19,0.18-0.19,0.33c0,0.17,0.08,0.3,0.23,0.39c0.15,0.09,0.37,0.14,0.64,0.14
		c0.53,0,0.95-0.11,1.26-0.32s0.47-0.49,0.47-0.84c0-0.04,0-0.07,0-0.08C22.69,6.09,22.69,6.08,22.68,6.06z"/>
	<path class="st0" d="M30.72,8c-0.32,0.22-0.65,0.39-1,0.5S29,8.67,28.6,8.67c-0.79,0-1.36-0.2-1.72-0.6
		c-0.36-0.4-0.54-1.04-0.54-1.9V3.19h2.4v2.52c0,0.4,0.06,0.68,0.19,0.83s0.35,0.23,0.67,0.23c0.35,0,0.63-0.08,0.83-0.25
		c0.2-0.17,0.3-0.4,0.3-0.7V3.19h2.4v5.37h-2.4V8z"/>
	<path class="st0" d="M41.41,1.58v6.98h-2.28l-0.02-0.53c-0.29,0.22-0.61,0.39-0.96,0.5S37.41,8.7,36.98,8.7
		c-0.9,0-1.61-0.26-2.14-0.77s-0.8-1.2-0.8-2.05c0-0.86,0.27-1.55,0.81-2.06c0.54-0.51,1.26-0.76,2.17-0.76
		c0.39,0,0.74,0.05,1.07,0.14c0.33,0.1,0.63,0.24,0.92,0.43V1.58H41.41z M39.01,5.88c0-0.36-0.11-0.65-0.33-0.87
		c-0.22-0.22-0.52-0.32-0.89-0.32S37.12,4.8,36.9,5.01s-0.33,0.5-0.33,0.87c0,0.36,0.11,0.65,0.33,0.86s0.52,0.33,0.89,0.33
		s0.67-0.11,0.89-0.33C38.9,6.53,39.01,6.24,39.01,5.88z"/>
	<path class="st0" d="M42.79,2.75V1.39h2.44v1.36H42.79z M42.79,8.56V3.19h2.44v5.37H42.79z"/>
	<path class="st0" d="M51.45,7.83c-0.3,0.32-0.66,0.54-1.08,0.69c-0.42,0.14-0.96,0.22-1.61,0.22c-0.88,0-1.54-0.15-1.97-0.44
		s-0.66-0.73-0.66-1.32c0-0.19,0.03-0.37,0.08-0.54c0.05-0.16,0.12-0.3,0.21-0.42c0.18-0.23,0.43-0.4,0.74-0.51
		c0.31-0.11,0.89-0.19,1.74-0.25c0.28-0.02,0.65-0.04,1.1-0.05c0.9-0.04,1.36-0.16,1.36-0.38c0-0.15-0.09-0.26-0.29-0.35
		c-0.19-0.09-0.45-0.13-0.78-0.13c-0.42,0-0.73,0.04-0.91,0.12s-0.29,0.22-0.32,0.42h-2.48c0.05-0.65,0.36-1.12,0.92-1.4
		c0.56-0.28,1.48-0.42,2.77-0.42c0.7,0,1.29,0.05,1.77,0.15s0.84,0.24,1.09,0.44c0.27,0.21,0.46,0.46,0.57,0.76
		c0.11,0.29,0.17,0.72,0.17,1.27v2.07c0,0.2,0.02,0.35,0.05,0.46c0.04,0.11,0.1,0.19,0.18,0.25v0.12h-2.49
		c-0.04-0.11-0.08-0.22-0.1-0.34C51.47,8.09,51.46,7.96,51.45,7.83z M51.44,6.06c-0.25,0.12-0.68,0.21-1.28,0.25
		c-0.17,0.01-0.31,0.02-0.4,0.03c-0.35,0.03-0.59,0.08-0.72,0.15c-0.13,0.07-0.19,0.18-0.19,0.33c0,0.17,0.08,0.3,0.23,0.39
		c0.15,0.09,0.37,0.14,0.64,0.14c0.53,0,0.95-0.11,1.26-0.32s0.47-0.49,0.47-0.84c0-0.04,0-0.07,0-0.08
		C51.45,6.09,51.45,6.08,51.44,6.06z"/>
	<path class="st0" d="M55.11,8.56V3.19h2.4v0.56c0.32-0.22,0.66-0.39,1-0.5c0.35-0.11,0.72-0.16,1.12-0.16c0.79,0,1.36,0.2,1.72,0.6
		c0.36,0.4,0.55,1.03,0.55,1.9v2.97h-2.4V6.04c0-0.4-0.06-0.68-0.19-0.83s-0.35-0.23-0.67-0.23c-0.35,0-0.63,0.08-0.83,0.25
		s-0.3,0.4-0.3,0.7v2.63H55.11z"/>
	<path class="st0" d="M62.74,6.85l2.92,0c0.02,0.19,0.1,0.32,0.25,0.4c0.14,0.08,0.38,0.12,0.7,0.12c0.27,0,0.48-0.03,0.62-0.09
		c0.14-0.06,0.21-0.15,0.21-0.27c0-0.21-0.36-0.35-1.09-0.42c-0.14-0.02-0.25-0.03-0.33-0.03c-0.01,0-0.01,0-0.02,0
		c-1.17-0.12-1.96-0.26-2.38-0.45C63.39,6,63.2,5.84,63.07,5.61c-0.13-0.23-0.19-0.5-0.19-0.8c0-0.62,0.28-1.07,0.85-1.36
		c0.57-0.29,1.47-0.43,2.71-0.43c1.17,0,2.04,0.15,2.62,0.44c0.57,0.29,0.88,0.75,0.92,1.36h-2.76c-0.02-0.18-0.1-0.31-0.25-0.39
		c-0.15-0.08-0.39-0.12-0.73-0.12c-0.28,0-0.49,0.03-0.62,0.09c-0.13,0.06-0.2,0.16-0.2,0.28c0,0.21,0.31,0.33,0.94,0.38
		c0.13,0.01,0.23,0.02,0.3,0.03c0.05,0,0.13,0.01,0.23,0.02c1.26,0.11,1.99,0.2,2.2,0.28c0.41,0.15,0.7,0.33,0.87,0.54
		c0.17,0.21,0.25,0.51,0.25,0.88c0,0.69-0.3,1.18-0.91,1.49c-0.6,0.31-1.59,0.46-2.97,0.46c-1.22,0-2.12-0.15-2.69-0.46
		C63.07,7.98,62.77,7.5,62.74,6.85z"/>
</g>
<g>
	<path class="st1" d="M75.9,7.26c0.02,0.05,0.05,0.11,0.08,0.17c0.03,0.07,0.06,0.14,0.1,0.22c0.02,0.03,0.03,0.05,0.04,0.07
		c0.01,0.02,0.01,0.04,0.01,0.06c-0.23,0.11-0.47,0.2-0.72,0.29c-0.25,0.09-0.52,0.17-0.79,0.25c-0.07,0.02-0.16,0.04-0.26,0.06
		c-0.1,0.02-0.22,0.05-0.35,0.08c-0.1,0.04-0.23,0.08-0.38,0.13S73.3,8.7,73.1,8.75c-0.13,0.03-0.25,0.07-0.38,0.1
		s-0.25,0.06-0.38,0.09c-0.16,0.04-0.3,0.07-0.43,0.08c-0.13,0.02-0.24,0.03-0.33,0.03c-0.24,0-0.42-0.05-0.54-0.14
		s-0.18-0.23-0.18-0.41c0-0.19,0.03-0.36,0.1-0.53c0.07-0.17,0.17-0.33,0.31-0.48c0.04-0.06,0.09-0.13,0.15-0.21
		c0.06-0.08,0.14-0.16,0.22-0.26c0.06-0.05,0.13-0.12,0.22-0.21c0.09-0.1,0.2-0.23,0.33-0.4c0.09-0.11,0.18-0.22,0.27-0.34
		c0.09-0.12,0.18-0.23,0.27-0.35c0.04-0.05,0.09-0.12,0.16-0.21c0.06-0.09,0.13-0.19,0.21-0.3c0.05-0.05,0.11-0.1,0.17-0.17
		c0.06-0.07,0.13-0.15,0.21-0.25c0.11-0.14,0.22-0.29,0.34-0.47s0.25-0.37,0.38-0.59c0.21-0.33,0.37-0.6,0.48-0.8
		c0.1-0.21,0.16-0.36,0.16-0.44c0-0.05-0.03-0.1-0.09-0.15c-0.06-0.05-0.15-0.1-0.28-0.16c-0.11-0.05-0.2-0.08-0.28-0.11
		s-0.15-0.04-0.21-0.04l-0.44-0.02c-0.05-0.02-0.1-0.03-0.15-0.05c-0.05-0.02-0.11-0.03-0.18-0.05L72.92,2
		c-0.07-0.02-0.14-0.04-0.2-0.05c-0.06-0.01-0.12-0.02-0.17-0.02c-0.23,0.02-0.44,0.03-0.63,0.06l-0.15-0.06
		c-0.02-0.02-0.03-0.04-0.04-0.09c-0.01-0.04-0.02-0.1-0.04-0.17c0.03-0.05,0.06-0.11,0.1-0.19s0.09-0.17,0.14-0.27
		c0.02-0.05,0.02-0.09,0.03-0.12c0.05-0.13,0.12-0.24,0.23-0.31c0.11-0.07,0.26-0.11,0.44-0.11c0.09,0,0.17,0,0.25,0.01
		c0.07,0.01,0.14,0.02,0.2,0.02l0.08,0.06c0.08-0.02,0.14-0.04,0.19-0.05c0.05-0.02,0.09-0.03,0.11-0.03
		c0.22,0.04,0.44,0.09,0.68,0.13c0.07,0,0.15,0.01,0.24,0.03c0.1,0.01,0.2,0.03,0.33,0.05c0.05,0.03,0.12,0.07,0.2,0.11
		s0.18,0.08,0.29,0.13c0.14,0.05,0.27,0.13,0.38,0.22c0.11,0.09,0.2,0.2,0.26,0.31c0.06,0.1,0.1,0.19,0.13,0.28
		c0.03,0.09,0.04,0.17,0.04,0.25c0,0.13-0.01,0.24-0.05,0.35c-0.03,0.11-0.08,0.2-0.14,0.29l-0.07,0.22
		c-0.01,0.03-0.03,0.07-0.05,0.13s-0.06,0.11-0.11,0.16c-0.07,0.09-0.14,0.18-0.21,0.27c-0.02,0.05-0.05,0.1-0.1,0.16
		c-0.05,0.06-0.11,0.12-0.19,0.19C75.08,3.99,75.06,4,75.04,4.03c-0.02,0.03-0.04,0.06-0.06,0.1c-0.04,0.09-0.11,0.19-0.19,0.31
		s-0.2,0.26-0.33,0.41c-0.17,0.2-0.31,0.36-0.4,0.48c-0.1,0.12-0.16,0.21-0.2,0.25c-0.05,0.04-0.09,0.08-0.14,0.12
		s-0.1,0.09-0.15,0.15l-0.07,0.17c-0.02,0.05-0.09,0.15-0.2,0.29c-0.12,0.15-0.28,0.34-0.48,0.59c-0.2,0.23-0.35,0.42-0.45,0.56
		c-0.1,0.15-0.14,0.24-0.14,0.3c0,0.03,0.02,0.05,0.05,0.06l0.22-0.04c0.05,0.01,0.1,0.02,0.15,0.03c0.09-0.02,0.19-0.02,0.29-0.03
		l0.2,0.06c0.11-0.03,0.2-0.06,0.28-0.07c0.08-0.01,0.15-0.02,0.21-0.02c0.19,0,0.38-0.01,0.54-0.04c0.17-0.03,0.32-0.07,0.46-0.13
		c0.08-0.01,0.17-0.02,0.29-0.05c0.11-0.03,0.25-0.06,0.39-0.09c0.04-0.02,0.09-0.04,0.13-0.05c0.04-0.01,0.09-0.03,0.14-0.06
		c0.06-0.01,0.12-0.02,0.17-0.03C75.81,7.28,75.86,7.27,75.9,7.26z"/>
	<path class="st1" d="M76.35,5.19c0-0.05,0.01-0.11,0.04-0.18c0.03-0.07,0.07-0.15,0.13-0.23c0.08-0.11,0.14-0.2,0.18-0.27
		s0.06-0.11,0.07-0.13c0.02-0.04,0.04-0.1,0.08-0.17c0.03-0.07,0.07-0.15,0.11-0.23c0.04-0.04,0.08-0.13,0.13-0.27
		s0.11-0.32,0.17-0.55c0.03-0.06,0.06-0.13,0.1-0.22c0.04-0.09,0.08-0.19,0.13-0.31c0.02-0.09,0.04-0.19,0.09-0.31
		s0.1-0.25,0.16-0.39c0.08-0.14,0.16-0.27,0.25-0.41c0.09-0.13,0.21-0.23,0.38-0.3c0.07,0.04,0.11,0.08,0.15,0.13
		c0.03,0.04,0.05,0.08,0.05,0.12c0,0.1-0.04,0.22-0.13,0.38c-0.08,0.16-0.13,0.27-0.13,0.32c0,0.03,0.02,0.06,0.05,0.09
		c0.03-0.02,0.09-0.06,0.17-0.14c0.08-0.08,0.19-0.18,0.31-0.31c0.11-0.1,0.2-0.18,0.29-0.24s0.17-0.1,0.24-0.12
		c0.05-0.02,0.11-0.04,0.19-0.05c0.08-0.02,0.16-0.04,0.26-0.07c0.05-0.03,0.09-0.05,0.12-0.08C79.96,1.22,80,1.2,80.06,1.18
		l0.09,0.02c0.03,0.03,0.13,0.07,0.29,0.11c0.16,0.04,0.26,0.05,0.3,0.05c0.03,0.02,0.07,0.05,0.12,0.09s0.1,0.09,0.18,0.14
		c0.15,0.09,0.29,0.23,0.43,0.4c0.13,0.18,0.25,0.4,0.36,0.66c0.1,0.24,0.17,0.47,0.23,0.69c0.05,0.22,0.08,0.43,0.08,0.63
		c0,0.64-0.08,1.19-0.24,1.66c-0.16,0.47-0.4,0.85-0.73,1.16c-0.03,0.03-0.07,0.07-0.11,0.11s-0.1,0.1-0.16,0.16v0.06
		c-0.01,0.04-0.03,0.08-0.07,0.12c-0.04,0.04-0.09,0.09-0.15,0.15c-0.14,0.13-0.28,0.26-0.43,0.39c-0.14,0.13-0.29,0.26-0.45,0.39
		c-0.19,0.16-0.37,0.29-0.54,0.39c-0.17,0.1-0.34,0.16-0.5,0.2c-0.07,0.06-0.15,0.11-0.25,0.14c-0.1,0.03-0.22,0.05-0.37,0.05
		c-0.21,0-0.39-0.01-0.52-0.04c-0.13-0.03-0.23-0.07-0.29-0.12c-0.03-0.03-0.07-0.07-0.12-0.1s-0.1-0.08-0.16-0.13
		c-0.07-0.05-0.13-0.14-0.18-0.27c-0.06-0.13-0.11-0.3-0.15-0.51c-0.03-0.16-0.05-0.31-0.07-0.45c-0.02-0.15-0.03-0.28-0.03-0.41
		c0-0.04,0.01-0.1,0.03-0.19c0.02-0.09,0.03-0.15,0.02-0.2c0-0.09,0-0.16-0.01-0.23c0-0.07,0.02-0.18,0.06-0.33
		c0.04-0.15,0.06-0.27,0.06-0.35c0-0.02-0.01-0.05-0.03-0.09c-0.06,0.07-0.1,0.13-0.13,0.19c-0.02,0.04-0.05,0.07-0.08,0.09
		c-0.03,0.02-0.06,0.03-0.09,0.03c-0.04,0-0.08-0.02-0.1-0.05c-0.02-0.03-0.04-0.09-0.04-0.15c0-0.05,0.01-0.11,0.03-0.21
		C76.34,5.31,76.35,5.23,76.35,5.19z M79.78,2.39c-0.09,0-0.19,0.01-0.28,0.03c-0.1,0.02-0.19,0.06-0.29,0.1l-0.55,0.25
		c-0.04,0.02-0.08,0.05-0.13,0.09c-0.05,0.04-0.1,0.1-0.16,0.17l-0.26,0.33c-0.08,0.1-0.16,0.28-0.22,0.54
		c-0.06,0.26-0.12,0.61-0.17,1.03c-0.04,0.32-0.07,0.63-0.08,0.91c-0.02,0.28-0.02,0.54-0.02,0.77c0,0.48,0.07,0.85,0.22,1.08
		c0.15,0.24,0.37,0.36,0.67,0.36c0.14,0,0.3-0.04,0.47-0.11c0.17-0.08,0.37-0.19,0.57-0.34c0.18-0.13,0.33-0.26,0.46-0.39
		c0.13-0.13,0.24-0.27,0.33-0.4c0.04-0.05,0.1-0.17,0.18-0.34s0.2-0.41,0.34-0.7c0.1-0.22,0.17-0.44,0.22-0.66
		c0.05-0.22,0.08-0.45,0.08-0.69c-0.02-0.11-0.05-0.23-0.07-0.34l0.04-0.25c-0.04-0.05-0.07-0.09-0.1-0.13
		c-0.01-0.03-0.02-0.06-0.03-0.07c-0.12-0.41-0.28-0.72-0.48-0.93C80.33,2.49,80.08,2.39,79.78,2.39z"/>
	<path class="st1" d="M83.45,2.63l-0.09-0.37c0.02-0.08,0.05-0.15,0.07-0.23c0.02-0.08,0.04-0.16,0.06-0.23
		c0.02-0.05,0.06-0.09,0.12-0.12c0.06-0.03,0.13-0.04,0.22-0.04c0.03,0,0.09-0.01,0.16-0.02c0.07-0.02,0.12-0.02,0.15-0.02
		c0.03,0,0.08,0.03,0.14,0.08c0.06,0.05,0.1,0.08,0.12,0.09c0.03-0.02,0.06-0.05,0.1-0.1c0.04-0.05,0.09-0.11,0.15-0.18
		c0.05-0.06,0.1-0.11,0.14-0.15s0.09-0.06,0.15-0.08c0.06,0.03,0.12,0.06,0.16,0.07c0.03,0.02,0.05,0.03,0.06,0.05
		c0.01,0.02,0.01,0.05,0.01,0.08c0,0.02-0.01,0.06-0.03,0.12s-0.05,0.15-0.09,0.25c-0.04,0.11-0.07,0.21-0.1,0.29
		c-0.02,0.08-0.04,0.14-0.05,0.18c-0.06,0.09-0.1,0.17-0.13,0.24c-0.03,0.07-0.05,0.14-0.05,0.2c0,0.08,0.02,0.19,0.07,0.34
		c0.04,0.15,0.11,0.34,0.2,0.56c0.12,0.3,0.25,0.62,0.37,0.96c0.11,0.37,0.23,0.72,0.36,1.06c0.13,0.34,0.26,0.67,0.39,0.98
		c0.14,0.33,0.26,0.57,0.35,0.73c0.09,0.16,0.16,0.24,0.21,0.24c0.04,0,0.07-0.02,0.08-0.07s0.03-0.11,0.03-0.21
		c0-0.04,0-0.09,0.01-0.15c0.01-0.06,0.03-0.13,0.05-0.2c0.03-0.1,0.07-0.22,0.1-0.35c0.04-0.2,0.07-0.37,0.1-0.52
		c0.03-0.15,0.06-0.28,0.08-0.38c0.01-0.07,0.03-0.21,0.05-0.44c0.02-0.22,0.04-0.52,0.06-0.9c0-0.04,0.01-0.09,0.02-0.16
		c0.01-0.07,0.03-0.15,0.04-0.23c0.02-0.09,0.03-0.16,0.03-0.23c0.01-0.06,0.01-0.12,0.01-0.17c0-0.09-0.01-0.22-0.03-0.39
		c-0.02-0.17-0.03-0.3-0.03-0.39c0.06-0.24,0.11-0.47,0.16-0.7c0.04-0.2,0.08-0.36,0.12-0.49c0.04-0.13,0.07-0.23,0.1-0.3
		c0.06-0.14,0.13-0.26,0.22-0.36s0.19-0.18,0.29-0.25h0.05c0.04,0,0.06,0.01,0.08,0.02c0.01,0.02,0.02,0.04,0.02,0.07
		c-0.02,0.08-0.04,0.14-0.05,0.18c0.01,0.07,0.02,0.14,0.03,0.22c-0.01,0.1-0.03,0.18-0.04,0.24c-0.01,0.04-0.02,0.11-0.02,0.19
		c-0.01,0.09-0.01,0.19-0.01,0.31c0,0.05-0.01,0.14-0.02,0.29s-0.03,0.35-0.06,0.6c-0.02,0.36-0.05,0.71-0.08,1.07
		S88,4.63,87.96,4.99c-0.03,0.43-0.07,0.82-0.13,1.17c-0.06,0.35-0.13,0.67-0.21,0.95c-0.02,0.17-0.05,0.35-0.11,0.56
		c-0.05,0.21-0.12,0.43-0.2,0.67l-0.18,0.29c-0.01,0.01-0.13,0.06-0.36,0.15s-0.36,0.12-0.38,0.12c-0.06,0-0.14-0.08-0.26-0.23
		c-0.11-0.15-0.25-0.38-0.41-0.69c-0.15-0.28-0.27-0.51-0.35-0.69c-0.09-0.18-0.14-0.32-0.17-0.41c-0.01-0.04-0.02-0.08-0.03-0.13
		c-0.02-0.05-0.03-0.11-0.05-0.18c-0.08-0.17-0.17-0.38-0.29-0.62s-0.25-0.54-0.4-0.88c-0.03-0.08-0.06-0.17-0.1-0.24
		s-0.09-0.16-0.15-0.25l-0.04,0.02c-0.03,0.08-0.05,0.17-0.08,0.29c-0.03,0.11-0.06,0.25-0.09,0.41c-0.04,0.1-0.08,0.19-0.12,0.27
		c-0.06,0.22-0.12,0.46-0.2,0.72c-0.07,0.26-0.15,0.54-0.24,0.84c-0.02,0.1-0.05,0.2-0.07,0.31c-0.02,0.11-0.05,0.22-0.08,0.33
		l-0.1,0.19c-0.02,0.11-0.03,0.23-0.05,0.34c-0.03,0.09-0.06,0.19-0.1,0.32s-0.09,0.27-0.15,0.44c-0.01,0.09-0.04,0.15-0.08,0.2
		s-0.1,0.07-0.18,0.07c-0.01,0.02-0.02,0.03-0.05,0.05c-0.02,0.02-0.06,0.03-0.11,0.05c-0.04,0.01-0.07-0.01-0.09-0.06
		c-0.02-0.05-0.03-0.12-0.03-0.21c0-0.05,0.01-0.14,0.03-0.25c0.02-0.11,0.05-0.26,0.09-0.43c0.04-0.2,0.08-0.35,0.1-0.47
		c0.02-0.11,0.04-0.18,0.05-0.21c0.01-0.09,0.03-0.21,0.05-0.36c0.02-0.15,0.04-0.32,0.06-0.51c0.01-0.05,0.02-0.11,0.04-0.19
		c0.02-0.07,0.04-0.16,0.07-0.26c0.02-0.08,0.06-0.28,0.11-0.62c0.06-0.34,0.13-0.81,0.22-1.41C83.26,3.82,83.36,3.23,83.45,2.63z"
		/>
	<path class="st1" d="M93.23,7.26l0.22,0.53c-0.04,0.04-0.09,0.08-0.15,0.12C93.23,7.95,93.16,8,93.08,8.04
		C93,8.07,92.91,8.11,92.8,8.16c-0.11,0.05-0.24,0.11-0.39,0.17c-0.11,0.07-0.2,0.12-0.27,0.15s-0.12,0.05-0.15,0.05
		c-0.05,0-0.14,0.02-0.27,0.06c-0.13,0.04-0.3,0.1-0.52,0.19c-0.12,0.04-0.24,0.08-0.36,0.13c-0.13,0.04-0.26,0.08-0.4,0.12
		l-0.35-0.07l-0.22,0.1c-0.07,0-0.15,0-0.22,0c-0.07,0-0.15-0.01-0.21-0.01c-0.11,0-0.19-0.02-0.25-0.05S89.1,8.93,89.1,8.88
		l0.03-0.22L89.1,8.62c-0.13,0-0.22-0.02-0.26-0.05s-0.07-0.11-0.07-0.24c0-0.06,0-0.15,0.01-0.29s0.01-0.31,0.03-0.52
		c0-0.02,0.01-0.06,0.04-0.12c0.02-0.06,0.04-0.1,0.04-0.13c-0.02-0.04-0.03-0.07-0.03-0.09c0-0.02-0.01-0.04-0.01-0.06
		c0.01-0.15,0.02-0.33,0.05-0.55c0.03-0.22,0.06-0.47,0.09-0.77c0.05-0.18,0.08-0.38,0.11-0.61c-0.01-0.17-0.01-0.34-0.02-0.51
		c0.14-0.63,0.29-1.27,0.43-1.91c0.02-0.11,0.07-0.22,0.13-0.33c0.06-0.1,0.14-0.2,0.23-0.3c0.04-0.03,0.06-0.05,0.07-0.06
		c0.02-0.03,0.04-0.08,0.07-0.13c0.03-0.05,0.07-0.11,0.11-0.17c0.02-0.02,0.06-0.04,0.11-0.07c0.05-0.03,0.12-0.07,0.21-0.13
		c0.04-0.03,0.08-0.07,0.13-0.11s0.11-0.09,0.17-0.15c0.14-0.09,0.28-0.18,0.4-0.28s0.28-0.16,0.47-0.18c0.09,0,0.18-0.01,0.26-0.01
		c0.09-0.01,0.17-0.01,0.25-0.02c0.08-0.02,0.14-0.02,0.2-0.03c0.04-0.01,0.07-0.02,0.1-0.02c0.03-0.01,0.05-0.01,0.08-0.01
		c0.02,0,0.05,0,0.09,0.01c0.04,0.01,0.09,0.01,0.16,0.03c0.05,0,0.1,0.01,0.14,0.01s0.07,0,0.11-0.01c0.15,0.05,0.26,0.11,0.34,0.2
		c0.07,0.09,0.11,0.19,0.11,0.31c0,0.26-0.03,0.46-0.08,0.59c-0.05,0.13-0.13,0.19-0.24,0.19c-0.08,0-0.18-0.04-0.29-0.13
		s-0.39-0.13-0.86-0.13c-0.19,0.04-0.39,0.08-0.58,0.11c-0.02,0.03-0.04,0.05-0.07,0.07c-0.03,0.02-0.05,0.03-0.07,0.03l-0.2-0.07
		c-0.06,0.02-0.13,0.09-0.21,0.19s-0.16,0.24-0.24,0.42c-0.02,0.04-0.03,0.09-0.04,0.14c-0.01,0.06-0.01,0.12-0.01,0.2
		c-0.07,0.27-0.14,0.54-0.21,0.79c-0.06,0.27-0.12,0.48-0.16,0.62s-0.06,0.23-0.07,0.26c-0.01,0.04-0.02,0.07-0.03,0.11
		c-0.01,0.03-0.01,0.07-0.01,0.1c0,0.05,0.01,0.09,0.03,0.11c0.02,0.03,0.05,0.04,0.09,0.04c0.03,0,0.12-0.06,0.25-0.19
		c0.13-0.13,0.23-0.2,0.29-0.21C90.84,4.56,90.92,4.53,91,4.5c0.08-0.03,0.17-0.06,0.25-0.1c0.03-0.01,0.13-0.03,0.27-0.05
		c0.15-0.02,0.35-0.04,0.62-0.07l0.16,0.05l0.3-0.06l0.16,0.07c0.04,0.04,0.07,0.08,0.11,0.14c0.03,0.06,0.06,0.12,0.09,0.18
		c0,0.23-0.02,0.4-0.07,0.52s-0.12,0.18-0.22,0.18l-0.31-0.13c-0.26,0.03-0.52,0.05-0.77,0.08c-0.25,0.02-0.51,0.05-0.78,0.07
		c-0.32,0.06-0.57,0.17-0.74,0.31s-0.27,0.34-0.29,0.57c0,0.05-0.02,0.13-0.04,0.23c-0.02,0.1-0.05,0.23-0.08,0.38l0.04,0.17
		c-0.03,0.16-0.06,0.32-0.08,0.46C89.61,7.67,89.6,7.8,89.6,7.92c0,0.04,0.01,0.07,0.02,0.08c0.01,0.02,0.03,0.02,0.04,0.01
		c0.18-0.02,0.33-0.03,0.44-0.03c0.11-0.01,0.19-0.01,0.23-0.01c0.1,0.01,0.2,0.01,0.3,0.02l0.36-0.03
		c0.04-0.01,0.12-0.04,0.25-0.09c0.13-0.05,0.24-0.08,0.35-0.08c0.11,0,0.22-0.01,0.33-0.03c0.11-0.02,0.22-0.05,0.32-0.09
		c0.1-0.04,0.21-0.08,0.31-0.12c0.1-0.04,0.2-0.08,0.31-0.12c0.04-0.01,0.09-0.03,0.15-0.06C93.07,7.35,93.14,7.31,93.23,7.26z"/>
</g>
<g>
</g>
<g>
</g>
<g>
</g>
<g>
</g>
<g>
</g>
</svg>
